<svg width="147" height="128" viewBox="0 0 147 128" fill="none" xmlns="http://www.w3.org/2000/svg">
<path d="M22.7727 100.538L17 65.1358L22.7727 61.1654L24.7519 72.5802L26.7311 86.1457L28.2155 96.7333L29.5349 103.02L31.5141 108.479L34.8128 112.78L39.101 116.254L50.9762 120.886L67.7994 122.375L83.3031 121.879L95.1783 120.059L103.92 117.081L110.517 112.615L113.156 107.983L115.465 102.854L117.609 89.9506L120.413 74.4L122.392 61L128 64.9704L124.042 89.9506L120.083 108.975L116.949 114.269L112.826 118.57L108.208 121.879L103.26 124.36L95.5082 126.677L87.0966 128H63.1813L53.2853 127.007L41.4101 124.195L33.1634 119.232L28.2155 114.6L24.7519 107.652L22.7727 100.538Z" fill="#6E734B"/>
<path d="M121 75H25L25.9965 80.8605L120.17 81.186L121 75Z" fill="#6E734B"/>
<path d="M45.7612 113.093V85.907H50.2457V114.558L45.7612 113.093Z" fill="#6E734B"/>
<path d="M70.6747 117V85.907H74.9931L75.4913 117H70.6747Z" fill="#6E734B"/>
<path d="M95.5882 114.558V85.907H100.405V113.093L95.5882 114.558Z" fill="#6E734B"/>
<path d="M65.2733 15.1014L53.1562 6.60377L61.1953 0L73.3123 9.09245L85.4766 0L93.5156 6.60377L81.3702 15.139L147 64.3868L143.555 70L73.3568 20.7703L3.77344 69.6698L0 63.8915L65.2733 15.1014Z" fill="#6E734B"/>
</svg>
